<svg id="Grupo_33" data-name="Grupo 33" xmlns="http://www.w3.org/2000/svg" width="999.492" height="1176.69" viewBox="0 0 999.492 1176.69">
  <g id="Grupo_24" data-name="Grupo 24" transform="translate(14.886 373.267)">
    <ellipse id="Elipse_8" data-name="Elipse 8" cx="92.875" cy="90.077" rx="92.875" ry="90.077" fill="rgba(255,255,255,0.13)"/>
    <path id="Trazado_53" data-name="Trazado 53" d="M162.617,108.639c.2-15.042,8.554-24.446,26.474-31.13,12.626-4.6,17.309-7.731,17.309-14.209,0-6.268-4.887-10.655-13.846-10.655a43.7,43.7,0,0,0-20.976,5.85l-4.887-18.176c5.271-2.9,13.869-5.586,23.827-5.981V19.5h18.217V36.812c13.643,4.822,21.7,16.01,21.7,29.414.2,11.909-7.942,22.772-27.288,29.669-12.218,4.387-16.292,7.94-16.292,14.833,0,6.687,4.887,11.283,15.885,11.283,8.961,0,19.753-3.76,25.455-7.313l4.889,18.6c-6.127,3.492-14.689,6.081-24.344,6.847v15.283H190.518v-16.2C172.283,135.627,162.617,123.866,162.617,108.639Z" transform="translate(-107.558 1.091)" fill="rgba(255,255,255,0.13)"/>
  </g>
  <g id="Grupo_31" data-name="Grupo 31" transform="translate(799.885 414.633)">
    <ellipse id="Elipse_8-2" data-name="Elipse 8" cx="92.875" cy="90.077" rx="92.875" ry="90.077" fill="rgba(255,255,255,0.13)"/>
    <path id="Trazado_53-2" data-name="Trazado 53" d="M162.617,108.639c.2-15.042,8.554-24.446,26.474-31.13,12.626-4.6,17.309-7.731,17.309-14.209,0-6.268-4.887-10.655-13.846-10.655a43.7,43.7,0,0,0-20.976,5.85l-4.887-18.176c5.271-2.9,13.869-5.586,23.827-5.981V19.5h18.217V36.812c13.643,4.822,21.7,16.01,21.7,29.414.2,11.909-7.942,22.772-27.288,29.669-12.218,4.387-16.292,7.94-16.292,14.833,0,6.687,4.887,11.283,15.885,11.283,8.961,0,19.753-3.76,25.455-7.313l4.889,18.6c-6.127,3.492-14.689,6.081-24.344,6.847v15.283H190.518v-16.2C172.283,135.627,162.617,123.866,162.617,108.639Z" transform="translate(-107.558 1.091)" fill="rgba(255,255,255,0.13)"/>
  </g>
  <g id="Grupo_25" data-name="Grupo 25" transform="translate(340.507 318.437)">
    <ellipse id="Elipse_8-3" data-name="Elipse 8" cx="62.663" cy="60.984" rx="62.663" ry="60.984" fill="rgba(255,255,255,0.13)"/>
    <path id="Trazado_53-3" data-name="Trazado 53" d="M162.617,79.48c.137-10.121,5.755-16.449,17.814-20.947,8.5-3.094,11.647-5.2,11.647-9.561,0-4.217-3.288-7.169-9.317-7.169a29.407,29.407,0,0,0-14.114,3.936l-3.288-12.231a37.833,37.833,0,0,1,16.033-4.024V19.5h12.258V31.149c9.18,3.245,14.6,10.773,14.6,19.792.137,8.013-5.344,15.323-18.362,19.964-8.221,2.952-10.963,5.342-10.963,9.981,0,4.5,3.288,7.592,10.689,7.592a36.879,36.879,0,0,0,17.128-4.921l3.289,12.513a40.291,40.291,0,0,1-16.38,4.607V110.96H181.391v-10.9C169.121,97.639,162.617,89.726,162.617,79.48Z" transform="translate(-125.4 -5.272)" fill="rgba(255,255,255,0.13)"/>
  </g>
  <g id="Grupo_32" data-name="Grupo 32" transform="translate(741.42 707.475)">
    <ellipse id="Elipse_8-4" data-name="Elipse 8" cx="47.53" cy="46.257" rx="47.53" ry="46.257" fill="rgba(255,255,255,0.13)"/>
    <path id="Trazado_53-4" data-name="Trazado 53" d="M162.617,64.995c.1-7.677,4.366-12.477,13.512-15.888,6.444-2.347,8.834-3.946,8.834-7.252,0-3.2-2.494-5.438-7.067-5.438A22.3,22.3,0,0,0,167.191,39.4L164.7,30.125a28.7,28.7,0,0,1,12.161-3.052V19.5h9.3v8.836c6.963,2.461,11.073,8.171,11.073,15.012.1,6.078-4.054,11.623-13.928,15.142-6.236,2.239-8.315,4.052-8.315,7.57,0,3.413,2.494,5.759,8.107,5.759a27.972,27.972,0,0,0,12.992-3.732l2.5,9.491a30.561,30.561,0,0,1-12.425,3.495v7.8h-9.3V80.607C167.551,78.769,162.617,72.767,162.617,64.995Z" transform="translate(-134.388 -8.708)" fill="rgba(255,255,255,0.13)"/>
  </g>
  <g id="Grupo_29" data-name="Grupo 29" transform="translate(595.126 303.059)">
    <ellipse id="Elipse_8-5" data-name="Elipse 8" cx="58.872" cy="57.295" rx="58.872" ry="57.295" fill="rgba(255,255,255,0.13)"/>
    <path id="Trazado_53-5" data-name="Trazado 53" d="M162.617,75.852c.129-9.509,5.407-15.454,16.736-19.68,7.982-2.907,10.942-4.887,10.942-8.983,0-3.962-3.089-6.736-8.753-6.736a27.628,27.628,0,0,0-13.26,3.7l-3.089-11.491a35.544,35.544,0,0,1,15.063-3.781V19.5h11.516V30.444c8.625,3.048,13.716,10.121,13.716,18.595.129,7.528-5.021,14.4-17.251,18.756-7.724,2.773-10.3,5.019-10.3,9.377,0,4.228,3.089,7.133,10.042,7.133a34.648,34.648,0,0,0,16.092-4.623l3.09,11.756a37.854,37.854,0,0,1-15.39,4.329v9.662H180.256V95.19C168.728,92.913,162.617,85.478,162.617,75.852Z" transform="translate(-127.651 -6.132)" fill="rgba(255,255,255,0.13)"/>
  </g>
  <g id="Grupo_30" data-name="Grupo 30" transform="translate(641.869 508.101)">
    <ellipse id="Elipse_8-6" data-name="Elipse 8" cx="46.082" cy="44.847" rx="46.082" ry="44.847" fill="rgba(255,255,255,0.13)"/>
    <path id="Trazado_53-6" data-name="Trazado 53" d="M162.617,63.609c.1-7.443,4.233-12.1,13.1-15.4,6.248-2.275,8.565-3.825,8.565-7.031,0-3.1-2.418-5.272-6.852-5.272A21.625,21.625,0,0,0,167.051,38.8L164.633,29.8a27.822,27.822,0,0,1,11.79-2.959V19.5h9.014v8.566c6.751,2.386,10.736,7.922,10.736,14.555.1,5.893-3.93,11.268-13.5,14.681-6.046,2.171-8.062,3.929-8.062,7.34,0,3.309,2.418,5.583,7.86,5.583a27.12,27.12,0,0,0,12.6-3.619l2.419,9.2A29.63,29.63,0,0,1,185.438,79.2v7.562h-9.014V78.745C167.4,76.963,162.617,71.143,162.617,63.609Z" transform="translate(-135.248 -9.037)" fill="rgba(255,255,255,0.13)"/>
  </g>
  <g id="Grupo_26" data-name="Grupo 26" transform="matrix(-0.809, -0.588, 0.588, -0.809, 388.783, 594.788)">
    <ellipse id="Elipse_8-7" data-name="Elipse 8" cx="44.759" cy="44.199" rx="44.759" ry="44.199" transform="translate(0 0)" fill="rgba(255,255,255,0.13)"/>
    <path id="Trazado_53-7" data-name="Trazado 53" d="M32.623,23.384C32.529,30.9,28.663,35.6,20.366,38.943c-5.846,2.3-8.014,3.864-8.014,7.1,0,3.133,2.263,5.325,6.411,5.325a19.146,19.146,0,0,0,9.711-2.924l2.263,9.085a24.536,24.536,0,0,1-11.032,2.989v7.416H11.271V59.284a15.273,15.273,0,0,1-10.045-14.7C1.132,38.631,4.9,33.2,13.86,29.754c5.657-2.193,7.543-3.968,7.543-7.414,0-3.342-2.263-5.64-7.355-5.64A24.014,24.014,0,0,0,2.263,20.356L0,11.061A26.207,26.207,0,0,1,11.271,7.639V0h8.434V8.095C28.148,9.9,32.623,15.773,32.623,23.384Z" transform="translate(29.801 11.201)" fill="rgba(255,255,255,0.13)"/>
  </g>
  <ellipse id="Elipse_7" data-name="Elipse 7" cx="138.193" cy="135.955" rx="138.193" ry="135.955" transform="translate(383.028 16.315)" fill="rgba(255,255,255,0.13)"/>
  <path id="Trazado_41" data-name="Trazado 41" d="M27.847,392.9c39.247-41.8,106.285-45.077,149.73-7.314,38.1,33.121,45.4,86.8,20.145,127.7L347.151,621.4l11.3-43.5c-24.712-10.015-37.852-36.688-29.554-61.749,8.787-26.542,38.273-41.2,65.856-32.746s42.823,36.826,34.033,63.365c-7.929,23.944-32.7,38.157-57.731,34.511L358.5,629.605,509.986,739.2V508.189l-65.929-76.124c-29.411,21.817-71.77,18.346-96.841-8.754-26.211-28.336-23.588-71.752,5.86-96.972s74.569-22.7,100.783,5.638a66.765,66.765,0,0,1-.191,91.528l56.318,65.026V300.859C428.859,295.367,364.8,230.346,364.8,150.89,364.8,67.832,434.781.5,521.1.5s156.3,67.332,156.3,150.39c0,72.932-53.964,133.725-125.564,147.465V445.488l48.329-48a60.737,60.737,0,0,1,6.336-81.817c25.495-24.266,66.606-24.052,91.826.478a60.821,60.821,0,0,1-.5,88.354c-24.5,23.32-63.418,24.017-88.8,2.265l-57.194,56.808V831.342L708.754,673.8l-16.119-71.178c-26.811,3.209-52.394-13.441-58.772-39.315-6.838-27.747,10.995-55.575,39.833-62.155s57.757,10.579,64.6,38.326c6.273,25.459-8.256,50.939-32.969,60.058l14.338,63.315L810.84,571.3c-36.7-40.4-34.854-101.817,5.329-140.063,41.771-39.761,109.131-39.409,150.452.783s40.958,105.006-.814,144.765c-38.969,37.09-100.2,39.26-141.791,6.753L695.408,712.661l39,14.853c14.654-26.287,48.533-36.584,76.27-22.952,28.082,13.8,39.22,46.9,24.875,73.916s-48.74,37.737-76.822,23.934c-24.461-12.021-36.058-38.676-29.165-63.209l-43.927-16.73-133.8,134.334v317.868H509.986V999.2L485.25,971.83C281.439,988.286,277.274,774.473,277.274,774.473c.6-.023,1.2-.073,1.776-.1,219.787-12.311,218.489,147.362,214.7,187.674l16.24,17.971V761.244l-200.162-144.8L206.9,649.278c-47.623,78.152-137.6,26-137.6,26,.146-.249.282-.506.424-.742,51.029-89.3,117.8-51.87,136.917-38.434l90.472-28.865L187.017,527.594c-.612.687-1.2,1.384-1.839,2.061-39.247,41.8-106.285,45.077-149.73,7.312S-11.4,434.7,27.847,392.9Z" transform="translate(0.808 0.758)" fill="none" stroke="#fff" stroke-miterlimit="10" stroke-width="1"/>
  <path id="Trazado_42" data-name="Trazado 42" d="M267.653,271.783c75.728,0,137.336-59.28,137.336-132.142S343.381,7.5,267.653,7.5,130.317,66.78,130.317,139.642,191.924,271.783,267.653,271.783Zm0-251.7c68.513,0,124.256,53.634,124.256,119.557S336.166,259.2,267.653,259.2,143.4,205.564,143.4,139.642,199.139,20.085,267.653,20.085Z" transform="translate(253.605 11.378)" fill="none" stroke="#fff" stroke-width="1"/>
  <path id="Trazado_43" data-name="Trazado 43" d="M162.617,151.551c.322-22.283,13.511-36.214,41.818-46.116,19.944-6.811,27.342-11.452,27.342-21.05,0-9.285-7.719-15.784-21.872-15.784-13.833,0-26.379,4.953-33.133,8.666l-7.72-26.927c8.326-4.294,21.908-8.276,37.638-8.86V19.5h28.775V45.146c21.55,7.143,34.271,23.718,34.271,43.574.322,17.642-12.546,33.735-43.105,43.952-19.3,6.5-25.735,11.762-25.735,21.973,0,9.907,7.72,16.715,25.092,16.715,14.155,0,31.2-5.57,40.209-10.833l7.722,27.548c-9.679,5.172-23.2,9.008-38.454,10.143v22.64H206.69V196.867C177.886,191.531,162.617,174.108,162.617,151.551Z" transform="translate(300.181 29.581)" fill="rgba(255,255,255,0.13)"/>
  <path id="Trazado_46" data-name="Trazado 46" d="M467.641,298.169c34.431-36.672,31.433-93.461-6.678-126.589s-97.132-30.244-131.565,6.428-31.433,93.456,6.681,126.587S433.211,334.838,467.641,298.169ZM335.982,183.726c31.15-33.176,84.549-35.784,119.032-5.812s37.2,81.352,6.043,114.53-84.549,35.789-119.032,5.814S304.832,216.908,335.982,183.726Z" transform="translate(-291.072 225.276)" fill="none" stroke="#fff" stroke-miterlimit="10" stroke-width="1"/>
  <path id="Trazado_56" data-name="Trazado 56" d="M467.641,298.169c34.431-36.672,31.433-93.461-6.678-126.589s-97.132-30.244-131.565,6.428-31.433,93.456,6.681,126.587S433.211,334.838,467.641,298.169ZM335.982,183.726c31.15-33.176,84.549-35.784,119.032-5.812s37.2,81.352,6.043,114.53-84.549,35.789-119.032,5.814S304.832,216.908,335.982,183.726Z" transform="translate(493.927 266.643)" fill="none" stroke="#fff" stroke-miterlimit="10" stroke-width="1"/>
  <path id="Trazado_48" data-name="Trazado 48" d="M309,232.123c25.835-22.124,28.145-60.347,5.151-85.2s-62.722-27.08-88.554-4.956-28.145,60.35-5.151,85.205S283.17,254.25,309,232.123ZM229.57,146.259c23.373-20.018,59.316-18.007,80.12,4.483a53.231,53.231,0,0,1-4.659,77.09c-23.373,20.018-59.316,18.006-80.12-4.483A53.231,53.231,0,0,1,229.57,146.259Z" transform="translate(134.265 192.235)" fill="none" stroke="#fff" stroke-miterlimit="10" stroke-width="1"/>
  <path id="Trazado_57" data-name="Trazado 57" d="M283.791,206.67a44.624,44.624,0,0,0,3.907-64.627c-17.443-18.855-47.575-20.541-67.169-3.759a44.626,44.626,0,0,0-3.907,64.629C234.065,221.767,264.2,223.453,283.791,206.67Zm-60.25-65.129c17.729-15.183,44.991-13.658,60.772,3.4a40.376,40.376,0,0,1-3.534,58.473c-17.729,15.183-44.991,13.658-60.772-3.4A40.376,40.376,0,0,1,223.541,141.541Z" transform="translate(535.573 581.147)" fill="none" stroke="#fff" stroke-miterlimit="10" stroke-width="1"/>
  <path id="Trazado_54" data-name="Trazado 54" d="M302.688,225.748a55.272,55.272,0,0,0,4.839-80.049c-21.606-23.354-58.928-25.442-83.2-4.656a55.275,55.275,0,0,0-4.839,80.051C241.1,244.449,278.418,246.537,302.688,225.748ZM228.06,145.077c21.959-18.807,55.728-16.917,75.274,4.212a50.012,50.012,0,0,1-4.377,72.427c-21.96,18.807-55.728,16.917-75.274-4.212A50.011,50.011,0,0,1,228.06,145.077Z" transform="translate(388.983 176.826)" fill="none" stroke="#fff" stroke-miterlimit="10" stroke-width="1"/>
  <path id="Trazado_55" data-name="Trazado 55" d="M281.378,204.234a43.264,43.264,0,0,0,3.788-62.657c-16.911-18.28-46.125-19.915-65.122-3.645a43.266,43.266,0,0,0-3.788,62.659C233.168,218.871,262.381,220.505,281.378,204.234Zm-58.414-63.144c17.189-14.721,43.621-13.242,58.92,3.3a39.146,39.146,0,0,1-3.426,56.692c-17.189,14.721-43.621,13.242-58.92-3.3A39.146,39.146,0,0,1,222.964,141.089Z" transform="translate(436.06 381.762)" fill="none" stroke="#fff" stroke-miterlimit="10" stroke-width="1"/>
  <path id="Trazado_50" data-name="Trazado 50" d="M251.424,280.425c24.2,7.418,50.155-5.49,57.864-28.772s-5.705-48.261-29.9-55.678-50.155,5.49-57.864,28.774S227.226,273.007,251.424,280.425ZM278.054,200c21.893,6.71,34.031,29.31,27.057,50.375s-30.462,32.743-52.355,26.033-34.03-29.31-27.056-50.375S256.161,193.287,278.054,200Z" transform="translate(114.245 294.112)" fill="none" stroke="#fff" stroke-miterlimit="10" stroke-width="1"/>
  <rect id="Rectángulo_20" data-name="Rectángulo 20" width="999.492" height="1176.691" transform="translate(0 0)" fill="none"/>
</svg>
