<svg id="Grupo_21" data-name="Grupo 21" xmlns="http://www.w3.org/2000/svg" xmlns:xlink="http://www.w3.org/1999/xlink" width="84.736" height="71.467" viewBox="0 0 84.736 71.467">
  <defs>
    <clipPath id="clip-path">
      <rect id="Rectángulo_18" data-name="Rectángulo 18" width="84.736" height="71.467" fill="#ebebeb"/>
    </clipPath>
  </defs>
  <g id="Grupo_20" data-name="Grupo 20" clip-path="url(#clip-path)">
    <path id="Trazado_36" data-name="Trazado 36" d="M137.924,102.515v-1.083c0-10.889.017-21.777-.017-32.666A3.127,3.127,0,0,1,140.62,65.7a2.985,2.985,0,0,1,2.881,2.9q0,4.714,0,9.428v24.445c.331.02.6.048.862.049,4,0,8-.021,11.994.021.84.009,1.013-.3,1.012-1.062q-.026-21.708-.008-43.417a3.018,3.018,0,0,1,.625-2.353,2.71,2.71,0,0,1,4.753,1.814q-.03,12.777-.01,25.554,0,9.221,0,18.442v.863c.957.141,1.836.281,2.717.4a2.793,2.793,0,0,1,1.9,2.139,2.741,2.741,0,0,1-1.49,2.826,3.57,3.57,0,0,1-1.48.332q-18.9.026-37.8.023a3.043,3.043,0,0,1-2.84-1.9,2.639,2.639,0,0,1,1.24-3.149,3.721,3.721,0,0,1,1.826-.5c3.363-.047,6.727-.023,10.091-.023h1.034" transform="translate(-82.633 -36.625)" fill="#ebebeb"/>
    <path id="Trazado_37" data-name="Trazado 37" d="M22.57,79.741c12.3-.272,22.582,10.3,22.512,22.5A22.541,22.541,0,1,1,0,102.068C.033,89.987,10.077,79.509,22.57,79.741m-17.008,22.5c-.293,9.248,7.85,17.088,17.041,17.008a17.064,17.064,0,1,0-.116-34.128,16.928,16.928,0,0,0-16.925,17.12" transform="translate(0 -53.315)" fill="#ebebeb"/>
    <path id="Trazado_38" data-name="Trazado 38" d="M149.729,9.579c-1.915,1.948-3.823,3.9-5.747,5.842q-4.167,4.2-8.353,8.387a2.715,2.715,0,0,1-4.3-.033c-1.158-1.167-2.33-2.321-3.458-3.517-.446-.473-.744-.42-1.172.012-2.969,2.994-6,5.927-8.917,8.974-1.289,1.348-4.019,1.4-4.821-.81a2.633,2.633,0,0,1,.737-2.9c3.825-3.872,7.68-7.714,11.525-11.567a2.991,2.991,0,0,1,4.14.1c1.317,1.421,2.7,2.779,4.052,4.161.251-.214.419-.339.566-.484,3.988-3.956,7.973-7.914,12.052-11.963-.763-.171-1.383-.283-1.987-.451a2.668,2.668,0,0,1-1.791-2.077A2.542,2.542,0,0,1,143.725.365a3.859,3.859,0,0,1,1.57-.331c2.4-.033,4.8.043,7.194-.032a3.031,3.031,0,0,1,3.056,3.058c-.122,2.475-.028,4.96-.032,7.44a2.793,2.793,0,0,1-1.826,2.733,2.885,2.885,0,0,1-3.336-1.371,4.282,4.282,0,0,1-.207-1.358c-.037-.276-.07-.553-.105-.829l-.309-.1" transform="translate(-75.42 0)" fill="#ebebeb"/>
    <path id="Trazado_39" data-name="Trazado 39" d="M52.72,132.425a2.694,2.694,0,0,1-2.663-2.291,1.048,1.048,0,0,0-.5-.69,7.326,7.326,0,0,1-4.01-4.618c-.351-1.178-.668-2.465.2-3.683A2.755,2.755,0,0,1,48.1,119.98a2.52,2.52,0,0,1,2.27,1.407,3.628,3.628,0,0,1,.352,1.311c.093,1.2.742,1.768,2.008,1.838a1.751,1.751,0,0,0,2-2.176,1.806,1.806,0,0,0-1.315-1.482c-1.241-.5-2.531-.876-3.778-1.36a6.507,6.507,0,0,1-3.836-3.906,7.108,7.108,0,0,1,1.325-7.685,10.765,10.765,0,0,1,2.228-1.651c.394-.258.7-.434.756-1.007a2.934,2.934,0,0,1,2.7-2.25,2.837,2.837,0,0,1,2.608,2.33,1.265,1.265,0,0,0,.617.825,6.972,6.972,0,0,1,3.819,4.182c.491,1.357.913,2.836-.185,4.174a2.564,2.564,0,0,1-2.685.971,2.528,2.528,0,0,1-1.976-1.788,8.62,8.62,0,0,0-.66-2.034,2.025,2.025,0,0,0-2.327-.663,1.907,1.907,0,0,0-1.281,2.1c.08.844.818,1.372,2.035,1.785,2.029.688,4.21,1.127,5.66,2.943a7.245,7.245,0,0,1,1.645,6.451,7.362,7.362,0,0,1-4.15,5.16,1.16,1.16,0,0,0-.519.723,2.568,2.568,0,0,1-2.693,2.244" transform="translate(-30.215 -68.884)" fill="#ebebeb"/>
  </g>
</svg>
