<svg id="Grupo_23" data-name="Grupo 23" xmlns="http://www.w3.org/2000/svg" xmlns:xlink="http://www.w3.org/1999/xlink" width="83.459" height="83.467" viewBox="0 0 83.459 83.467">
  <defs>
    <clipPath id="clip-path">
      <rect id="Rectángulo_19" data-name="Rectángulo 19" width="83.459" height="83.467" fill="#ebebeb"/>
    </clipPath>
  </defs>
  <g id="Grupo_22" data-name="Grupo 22" clip-path="url(#clip-path)">
    <path id="Trazado_40" data-name="Trazado 40" d="M0,41.715A41.729,41.729,0,1,1,41.681,83.467,41.818,41.818,0,0,1,0,41.715M4.892,39.1c.4.041.69.093.98.1.95.011,1.9,0,2.85,0q4.8,0,9.609,0c.433,0,.857.057.887-.626.066-1.482.2-2.962.327-4.439.1-1.179.235-2.356.385-3.53a16.427,16.427,0,0,1,.358-1.974c.491-1.93,1.011-3.853,1.529-5.777.141-.522-.1-.781-.551-.977-2.363-1.015-4.748-1.989-7.06-3.11-.658-.319-1.018-.342-1.435.194A37.356,37.356,0,0,0,5.918,33.037c-.48,1.942-.678,3.954-1.027,6.066m73.679,5.272a9.551,9.551,0,0,0-.969-.107c-4.126-.006-8.252.008-12.378-.016-.706,0-.985.159-1.007.945-.05,1.835-.159,3.675-.383,5.5-.192,1.558-.555,3.1-.885,4.637-.3,1.379-.65,2.745-.98,4.116-.422,1.75-.427,1.758.948,2.387,2.242,1.026,4.495,2.029,6.731,3.068.4.186.589.1.831-.24.81-1.148,1.77-2.2,2.466-3.414a47.033,47.033,0,0,0,2.953-5.83,42.221,42.221,0,0,0,1.728-5.855c.407-1.682.629-3.408.946-5.187M71.387,39.2H77.25c1.222,0,1.218,0,1.048-1.156-.035-.241-.012-.491-.05-.731a36.144,36.144,0,0,0-.752-4.432,58.306,58.306,0,0,0-2.216-6.252,32.15,32.15,0,0,0-4.714-7.764.783.783,0,0,0-1.125-.234q-3.619,1.637-7.252,3.243a.789.789,0,0,0-.54,1.057c.341,1.256.7,2.509.979,3.779.44,2,.913,4.01,1.2,6.039.259,1.841.322,3.713.4,5.574.027.669.222.9.893.888,2.09-.032,4.18-.011,6.27-.011m-59.316,5.06H6.209c-1.233,0-1.23,0-1.054,1.153.033.214.014.436.047.649a36.993,36.993,0,0,0,.754,4.514,56.7,56.7,0,0,0,2.217,6.253,31.34,31.34,0,0,0,4.773,7.818c.382.463.662.363,1.062.184,2.414-1.085,4.826-2.177,7.25-3.24a.785.785,0,0,0,.547-1.054c-.338-1.257-.7-2.51-.979-3.78-.44-2-.91-4.01-1.2-6.04a46.319,46.319,0,0,1-.386-5.411c-.02-.818-.236-1.084-1.061-1.063-2.034.052-4.071.017-6.107.017m27.1-18.754c-1.989-.241-3.89-.43-5.776-.711-1.771-.264-3.535-.588-5.286-.958-1.286-.272-1.359-.289-1.739,1.01-.253.866-.49,1.738-.682,2.618-.328,1.51-.638,3.025-.913,4.546-.22,1.214-.443,2.434-.54,3.661-.091,1.148-.02,2.309-.02,3.449H39.167Zm17.643-1.718L44.312,25.6V39.139H59.394a57.358,57.358,0,0,0-2.583-15.347M39.166,44.327H24.008c.17,2.062.316,4.05.5,6.034a20.175,20.175,0,0,0,.366,2.221c.273,1.3.571,2.6.877,3.9.226.956.45,1.915.749,2.848a.82.82,0,0,0,.7.356c1.053-.17,2.085-.48,3.141-.626,2.078-.287,4.168-.491,6.251-.742.849-.1,1.695-.238,2.569-.363Zm20.218-.011H44.321V57.863l12.495,1.814a57.243,57.243,0,0,0,2.569-15.362M39.127,20.487V5.413A25.108,25.108,0,0,0,36.84,6.876a23.107,23.107,0,0,0-2.456,2.266,33.828,33.828,0,0,0-5.941,9.635c.878.8,8.68,1.655,10.684,1.711m16.167-1.662c-1.554-2.641-2.886-5.2-4.5-7.57A15.946,15.946,0,0,0,44.357,5.51V20.556a60.5,60.5,0,0,0,10.938-1.731M28.4,64.59c.235.519.424.945.62,1.368a30.755,30.755,0,0,0,6.539,9.588A11,11,0,0,0,39.1,77.922V62.914c-3.655.4-7.234.619-10.706,1.676m15.922,13.5a26.1,26.1,0,0,0,2.82-1.867c3.625-3.154,6-7.184,7.914-11.662A58.833,58.833,0,0,0,44.32,62.933ZM23.6,17.666A51.321,51.321,0,0,1,29.358,7.217a34.174,34.174,0,0,0-12.612,7.462L23.6,17.666m43.116-2.985A34.183,34.183,0,0,0,54.084,7.223,51.126,51.126,0,0,1,59.866,17.66l6.851-2.979m.006,54.1L59.851,65.8A51.975,51.975,0,0,1,54.1,76.252a34.6,34.6,0,0,0,12.621-7.468m-49.848.123a33.918,33.918,0,0,0,12.493,7.332,50.875,50.875,0,0,1-5.751-10.356,37.924,37.924,0,0,0-6.743,3.024" transform="translate(0 0)" fill="#ebebeb"/>
  </g>
</svg>
