<svg id="Ticket" xmlns="http://www.w3.org/2000/svg" xmlns:xlink="http://www.w3.org/1999/xlink" width="32" height="32" viewBox="0 0 32 32">
    <defs>
        <clipPath id="clip-path">
            <rect id="Ticket_Background_Mask_" data-name="Ticket (Background/Mask)" width="32" height="32" fill="none" />
        </clipPath>
    </defs>
    <rect id="Ticket_Background_Mask_2" data-name="Ticket (Background/Mask)" width="32" height="32" fill="none" />
    <g id="Ticket-2" data-name="Ticket" clip-path="url(#clip-path)">
        <path id="Vector" d="M3.5,21A3.5,3.5,0,0,1,0,17.5V13.84a1.5,1.5,0,0,1,1.5-1.5,1.84,1.84,0,0,0,0-3.68A1.5,1.5,0,0,1,0,7.16V3.5A3.5,3.5,0,0,1,3.5,0h22A3.5,3.5,0,0,1,29,3.5V7.16a1.5,1.5,0,0,1-1.5,1.5,1.84,1.84,0,1,0,0,3.68,1.5,1.5,0,0,1,1.5,1.5V17.5A3.5,3.5,0,0,1,25.5,21Z" transform="translate(1.5 5.5)" fill="#0415ff" />
    </g>
</svg>