<svg id="Grupo_19" data-name="Grupo 19" xmlns="http://www.w3.org/2000/svg" xmlns:xlink="http://www.w3.org/1999/xlink" width="70.276" height="83.785" viewBox="0 0 70.276 83.785">
  <defs>
    <clipPath id="clip-path">
      <rect id="Rectángulo_17" data-name="Rectángulo 17" width="70.276" height="83.785" fill="#ebebeb"/>
    </clipPath>
  </defs>
  <g id="Grupo_18" data-name="Grupo 18" clip-path="url(#clip-path)">
    <path id="Trazado_31" data-name="Trazado 31" d="M22.916,69.639c3.711-2.15,7.332-4.157,10.863-6.323,2.72-1.669,3.752-4.56,4.431-7.583.571-2.54,1.017-5.111,1.545-7.662.461-2.227,1.195-2.775,3.39-2.608,6.666.507,11.727,7.185,10.576,14.235a58.867,58.867,0,0,1-2.117,7.482c-.279.918-.7,1.788-1.133,2.886,4.229,0,8.274-.137,12.3.069a9.245,9.245,0,0,1,4.639,1.5c3.328,2.324,3.666,6.443,1.184,10.687,2.237,3.9,2.237,5.919,0,9.826,3.294,4.734,1.4,10.2-3.366,12.026.094.675.225,1.36.28,2.051.32,4.053-2.407,7.862-6.255,7.868-9.92.013-19.876.9-29.748-.842-2.146-.378-4.24-1.073-6.382-1.483a2.517,2.517,0,0,0-1.876.471,7.738,7.738,0,0,1-5.153,1.979c-4.37-.022-8.741,0-13.111-.01C.859,114.2.015,113.378.012,111.177Q-.013,89.69.012,68.2c0-2.206.844-3.032,2.964-3.039,4.11-.013,8.222.072,12.33-.028a7.591,7.591,0,0,1,7.61,4.5m22.485.428c.975-2.541,1.954-5,2.856-7.489a19.537,19.537,0,0,0,.763-2.992,7.812,7.812,0,0,0-3.557-8.353,11.18,11.18,0,0,0-1.421-.572c-.192.987-.384,1.724-.473,2.475-.966,8.233-4.765,14.2-12.305,17.4-2.346.994-4.479,2.531-6.74,3.757a1.884,1.884,0,0,0-1.1,1.908c.031,9.753,0,19.506.061,29.258a1.9,1.9,0,0,0,.947,1.48c3.185.767,6.385,1.816,9.614,1.962,8.052.364,16.123.307,24.186.39a2.347,2.347,0,0,0,2.622-2.2c.127-1.446-.671-2.371-2.32-2.69a2.409,2.409,0,0,1-2.262-2.595c.075-1.421,1.054-2.278,2.691-2.308,1.3-.024,2.6.014,3.9-.011,1.693-.033,2.708-.986,2.688-2.478S64.516,94.624,62.8,94.6c-1.353-.021-2.707.027-4.059-.018a2.443,2.443,0,1,1,.018-4.886c1.4-.045,2.811.014,4.215-.021A2.443,2.443,0,1,0,63,84.793c-1.144-.035-2.29-.007-3.435-.009-2.225-.005-3.331-.841-3.306-2.495.024-1.633,1.114-2.41,3.383-2.416,1.249,0,2.5.066,3.746-.037a2.227,2.227,0,0,0,2.153-2.344A2.332,2.332,0,0,0,63.361,75a13.186,13.186,0,0,0-1.4-.021c-6.506,0-13.012.011-19.518-.012a2.449,2.449,0,1,1-.049-4.891c.983-.035,1.968-.007,3.011-.007m-40.569.017V109.3c3.556,0,6.981,0,10.406,0,2.849,0,3.5-.666,3.5-3.623q.007-16,0-32a11.824,11.824,0,0,0-.04-1.3A2.224,2.224,0,0,0,16.464,70.1c-3.839-.06-7.679-.021-11.632-.021" transform="translate(0 -30.541)" fill="#ebebeb"/>
    <path id="Trazado_32" data-name="Trazado 32" d="M139.341,5.056c0,.868.064,1.743-.015,2.6a2.17,2.17,0,0,1-2.24,2.222,2.09,2.09,0,0,1-2.316-2.112,47.586,47.586,0,0,1,.009-5.69A2.094,2.094,0,0,1,136.98,0,2.163,2.163,0,0,1,139.3,2.13a26.428,26.428,0,0,1,.021,2.926h.016" transform="translate(-92.519 0)" fill="#ebebeb"/>
    <path id="Trazado_33" data-name="Trazado 33" d="M92.3,17.092c.7.252,1.183.281,1.453.547a50.571,50.571,0,0,1,4.057,4.246,2.178,2.178,0,0,1-.387,3.068,1.984,1.984,0,0,1-2.844.173,27.855,27.855,0,0,1-3.817-4.04,3.151,3.151,0,0,1-.148-2.54c.25-.652,1.159-1.028,1.686-1.454" transform="translate(-62.112 -11.489)" fill="#ebebeb"/>
    <path id="Trazado_34" data-name="Trazado 34" d="M177.348,19.838c.036,2.117-4.136,6.606-5.629,6.4a2.763,2.763,0,0,1-1.944-1.26,3.032,3.032,0,0,1,.164-2.524,21.148,21.148,0,0,1,3.727-3.9,2.818,2.818,0,0,1,2.425-.209c.632.247,1.018,1.183,1.258,1.489" transform="translate(-116.484 -12.216)" fill="#ebebeb"/>
    <path id="Trazado_35" data-name="Trazado 35" d="M32.325,210.378a2.364,2.364,0,0,1,2.355,2.3,2.392,2.392,0,0,1-2.245,2.579,2.363,2.363,0,0,1-2.355-2.3,2.39,2.39,0,0,1,2.245-2.579" transform="translate(-20.66 -141.416)" fill="#ebebeb"/>
  </g>
</svg>
