<svg xmlns="http://www.w3.org/2000/svg" xmlns:xlink="http://www.w3.org/1999/xlink" width="610.382" height="55.519" viewBox="0 0 610.382 55.519">
  <defs>
    <clipPath id="clip-path">
      <path id="Trazado_1" data-name="Trazado 1" d="M477.407,386.669v30.26h47.61v-5.084H482.49V391.753h42.527v-5.084ZM338.53,361.412v25.258H300.683V361.412H296v55.518h4.68V391.672l37.847.081v25.177h5.084V361.412Zm61.49,0-20.336,24.207-20.335-24.207h-6.538l24.614,29.373v26.144h5.084V390.059l24.047-28.647Zm15.656,0v4.68H446.1c5.487,0,10.733,1.775,14.122,4.761,1.13,1.049,3.065,3.148,3.065,5.729s-1.936,4.681-3.065,5.73c-3.39,2.986-8.635,4.761-14.122,4.761H415.675v29.857h5.082V391.753H446.1c6.859,0,13.072-2.179,17.188-5.568,3.147-2.582,5.084-5.972,5.084-9.6,0-3.711-1.937-7.021-5.084-9.683-4.116-3.31-10.329-5.487-17.188-5.487Zm61.731,5.084h47.61V361.41h-47.61Zm56.649-5.084v4.68h30.422c5.487,0,10.733,1.775,14.122,4.761,1.129,1.049,3.066,3.148,3.066,5.729s-1.937,4.681-3.066,5.73c-3.389,2.986-8.635,4.761-14.122,4.761h-25.34l-5.082-.081v29.938h5.082V391.753h3.712l35.75,25.177h8.068L551,391.753h13.477c6.859,0,13.072-2.179,17.188-5.568,3.146-2.582,5.083-5.972,5.083-9.6,0-3.711-1.937-7.021-5.083-9.683-4.116-3.31-10.329-5.487-17.188-5.487Zm61.731,55.518h5.084V361.412h-5.084Zm60.6-55.518v36.474a16.337,16.337,0,0,1-2.743,5.73,19.57,19.57,0,0,1-4.116,4.033c-.566.324-1.13.728-1.775,1.05a23.263,23.263,0,0,1-12.025,3.147,23.759,23.759,0,0,1-12.1-3.147c-.566-.323-1.13-.726-1.7-1.05a19.61,19.61,0,0,1-4.116-4.033,14.827,14.827,0,0,1-2.741-5.81V361.412h-5.085v33.246a20.125,20.125,0,0,0,5.085,13.315,5.293,5.293,0,0,1,.645.726,26.605,26.605,0,0,0,3.631,3.147,28.934,28.934,0,0,0,32.761,0,26.719,26.719,0,0,0,3.552-3.147l.726-.726a20.55,20.55,0,0,0,5.084-13.315V361.412Zm60.6,0v49.3l-40.429-49.3h-5.972v55.518h5.085v-49.3l40.429,49.3h5.971V361.412Zm56.326,0H753.387c-6.941,0-13.073,3.954-17.189,10.088a33.265,33.265,0,0,0,0,35.344c4.116,6.132,10.248,10.086,17.189,10.086H778.4v-10.41h-5.082v5.327H753.387c-4.923,0-9.684-2.824-12.913-7.828a27.915,27.915,0,0,1,0-29.7c3.229-5,7.99-7.826,12.913-7.826h19.932v5.325H778.4V361.412Zm40.024,0-10.731,23-2.341,5.084-12.832,27.436h5.408l10.41-22.353,2.42-5.084,2.341-5.084,7.989-17.189,8.07,17.189,2.341,5.084,2.339,5.084,10.49,22.353h5.408l-12.831-27.436-2.341-5.084-10.733-23Zm40.348,0v4.68h30.424c5.486,0,10.732,1.775,14.12,4.761,1.13,1.049,3.068,3.148,3.068,5.729s-1.939,4.681-3.068,5.73c-3.388,2.986-8.634,4.761-14.12,4.761H853.691v29.857h5.084V391.753h25.34c6.857,0,13.072-2.179,17.188-5.568,3.146-2.582,5.082-5.972,5.082-9.6,0-3.711-1.936-7.021-5.082-9.683-4.116-3.31-10.331-5.487-17.188-5.487Z" transform="translate(-296.003 -361.41)" fill="#fff"/>
    </clipPath>
  </defs>
  <g id="Grupo_2" data-name="Grupo 2" style="isolation: isolate">
    <g id="Grupo_1" data-name="Grupo 1" clip-path="url(#clip-path)">
      <rect id="Rectángulo_1" data-name="Rectángulo 1" width="610.382" height="55.519" transform="translate(0 0)" fill="#fff"/>
    </g>
  </g>
</svg>
