<svg xmlns="http://www.w3.org/2000/svg" xmlns:xlink="http://www.w3.org/1999/xlink" width="334.708" height="45.641" viewBox="0 0 334.708 45.641">
  <defs>
    <clipPath id="clip-path">
      <path id="Trazado_1" data-name="Trazado 1" d="M377.257,372.724v13.554h21.326V384H379.534v-9h19.049v-2.277Zm-62.206-11.313v11.313H298.1V361.411H296v24.868h2.1V374.965l16.952.036v11.277h2.277V361.411Zm27.542,0-9.109,10.843-9.108-10.843h-2.928l11.025,13.157v11.711h2.277V374.242l10.771-12.832Zm7.013,0v2.1h13.627a9.746,9.746,0,0,1,6.326,2.133,3.085,3.085,0,0,1,0,5.133,9.746,9.746,0,0,1-6.326,2.133H349.607v13.373h2.276V375h11.35a12.269,12.269,0,0,0,7.7-2.494,5.656,5.656,0,0,0,2.277-4.3,5.723,5.723,0,0,0-2.277-4.337,12.472,12.472,0,0,0-7.7-2.458Zm27.651,2.277h21.326V361.41H377.257Zm25.374-2.277v2.1h13.627a9.746,9.746,0,0,1,6.326,2.133,3.085,3.085,0,0,1,0,5.133,9.746,9.746,0,0,1-6.326,2.133h-11.35l-2.276-.036v13.41h2.276V375h1.663l16.013,11.277H426.2L410.222,375h6.037a12.269,12.269,0,0,0,7.7-2.494,5.656,5.656,0,0,0,2.277-4.3,5.723,5.723,0,0,0-2.277-4.337,12.473,12.473,0,0,0-7.7-2.458Zm27.651,24.868h2.277V361.411h-2.277Zm27.145-24.868v16.337a7.319,7.319,0,0,1-1.229,2.567,8.766,8.766,0,0,1-1.844,1.807c-.253.145-.506.326-.8.47A10.42,10.42,0,0,1,448.174,384a10.642,10.642,0,0,1-5.422-1.409c-.253-.145-.506-.325-.759-.47a8.784,8.784,0,0,1-1.844-1.807,6.641,6.641,0,0,1-1.228-2.6v-16.3h-2.278V376.3a9.014,9.014,0,0,0,2.278,5.964,2.374,2.374,0,0,1,.289.325A11.916,11.916,0,0,0,440.837,384a12.96,12.96,0,0,0,14.675,0,11.965,11.965,0,0,0,1.591-1.409l.325-.325A9.2,9.2,0,0,0,459.7,376.3V361.411Zm27.145,0V383.5l-18.109-22.084h-2.675v24.868h2.278V364.194l18.109,22.084h2.674V361.411Zm25.23,0h-8.928a9.385,9.385,0,0,0-7.7,4.518,14.9,14.9,0,0,0,0,15.831,9.386,9.386,0,0,0,7.7,4.518h11.2v-4.663H509.8V384h-8.928a7.016,7.016,0,0,1-5.784-3.506,12.5,12.5,0,0,1,0-13.3,7.017,7.017,0,0,1,5.784-3.506H509.8v2.385h2.276v-4.662Zm17.928,0-4.807,10.3-1.049,2.277-5.748,12.289h2.422l4.663-10.012,1.084-2.277,1.049-2.277,3.578-7.7,3.615,7.7,1.049,2.277,1.048,2.277,4.7,10.012h2.422l-5.747-12.289-1.048-2.277-4.807-10.3Zm18.073,0v2.1H559.43a9.742,9.742,0,0,1,6.325,2.133,3.083,3.083,0,0,1,0,5.133,9.742,9.742,0,0,1-6.325,2.133H545.8v13.373h2.277V375h11.35a12.271,12.271,0,0,0,7.7-2.494,5.655,5.655,0,0,0,2.276-4.3,5.723,5.723,0,0,0-2.276-4.337,12.475,12.475,0,0,0-7.7-2.458Z" transform="translate(-296.003 -361.41)" fill="#fff"/>
    </clipPath>
  </defs>
  <g id="Grupo_3" data-name="Grupo 3" transform="translate(-96.042 -68.886)">
    <g id="Grupo_2" data-name="Grupo 2" transform="translate(157.348 73.569)" style="isolation: isolate">
      <g id="Grupo_1" data-name="Grupo 1" clip-path="url(#clip-path)">
        <rect id="Rectángulo_1" data-name="Rectángulo 1" width="273.403" height="24.868" transform="translate(0 0)" fill="#fff"/>
      </g>
    </g>
    <path id="Trazado_2" data-name="Trazado 2" d="M421.282,205.55l28.535-.832.423.832v29.694l-6.113,3.164-.414-.835.414-9.857h-9.892v12.657l4.9,2.757,12.835-7.373V205.55l5.691-.819.422.819v33.757L439.4,250.359l-10.22-5.828h-1.052l-.427-.856.427-30,5.682-.832.431.832V221.6h9.892v-9.646H426.321v30.4L420.208,239l-.386-.854.386-32.6Z" transform="translate(-323.779 -135.831)" fill="#fff"/>
  </g>
</svg>
